<svg xmlns="http://www.w3.org/2000/svg" xmlns:xlink="http://www.w3.org/1999/xlink" viewBox="0 0 350 350"><defs><style>.cls-1,.cls-13,.cls-2,.cls-20{fill:none;}.cls-10,.cls-13,.cls-14,.cls-15,.cls-16,.cls-17,.cls-18,.cls-19,.cls-2,.cls-20,.cls-22,.cls-24,.cls-27,.cls-5,.cls-6,.cls-7,.cls-9{stroke:#491d70;}.cls-10,.cls-13,.cls-14,.cls-15,.cls-2,.cls-27,.cls-5,.cls-6,.cls-7,.cls-9{stroke-linecap:round;stroke-linejoin:round;}.cls-14,.cls-15,.cls-16,.cls-17,.cls-18,.cls-19,.cls-2,.cls-20,.cls-22,.cls-24,.cls-27,.cls-5,.cls-6,.cls-7{stroke-width:2px;}.cls-22,.cls-27,.cls-3{fill:#662d91;}.cls-4{clip-path:url(#clip-path);}.cls-18,.cls-21,.cls-5,.cls-9{fill:#fff;}.cls-17,.cls-28,.cls-6{fill:#9a46f2;}.cls-10,.cls-16,.cls-23,.cls-7{fill:#491d70;}.cls-8{clip-path:url(#clip-path-2);}.cls-11{clip-path:url(#clip-path-3);}.cls-12,.cls-15,.cls-19{fill:#fbb03b;}.cls-13{stroke-width:5px;}.cls-16,.cls-17,.cls-18,.cls-19,.cls-20,.cls-22,.cls-24{stroke-miterlimit:10;}.cls-25{clip-path:url(#clip-path-4);}.cls-26{clip-path:url(#clip-path-5);}</style><clipPath id="clip-path"><rect class="cls-1" width="350" height="350"/></clipPath><clipPath id="clip-path-2"><circle class="cls-2" cx="96.67" cy="157.93" r="38.69"/></clipPath><clipPath id="clip-path-3"><circle class="cls-2" cx="253.33" cy="157.93" r="38.69"/></clipPath><clipPath id="clip-path-4"><rect class="cls-1" x="95.81" y="208.02" width="74.38" height="180.96" transform="translate(431.5 165.5) rotate(90)"/></clipPath><clipPath id="clip-path-5"><rect class="cls-1" x="380" width="350" height="350"/></clipPath></defs><g id="bg"><rect class="cls-3" width="350" height="350"/></g><g id="main"><g class="cls-4"><path class="cls-5" d="M312.82,284a10,10,0,0,1-7.35-16.78h0c.12-.13,12.37-13.63,24.44-39.79,11.13-24.11,24.4-64.26,24.4-118.58,0-32.22-11.37-55.14-32-64.54-18.54-8.45-42.92-4.41-59.29,9.82a10,10,0,0,1-13.12-15.1c22.43-19.5,54.86-24.7,80.7-12.92,16.32,7.43,43.71,28.07,43.71,82.74,0,112.27-51.95,169.57-54.16,172A10,10,0,0,1,312.82,284Z"/><polygon class="cls-6" points="30.61 394.54 30.61 16.49 98.68 84.56 252.74 84.56 338.74 41.23 319.39 84.56 319.39 394.54 30.61 394.54"/><polygon class="cls-5" points="38.99 45.87 77.69 84.56 38.99 84.56 38.99 45.87"/><polygon class="cls-5" points="325.62 58.27 273.51 84.32 311.25 84.32 325.62 58.27"/><path class="cls-5" d="M175,155.1c-57.61,0,0,78.8-144.39,78.8V394.54H319.39V233.9C175,233.9,232.61,155.1,175,155.1Z"/><polygon class="cls-7" points="175 176.28 186.98 163.03 163.02 163.03 175 176.28"/><line class="cls-2" x1="175" y1="176.28" x2="175" y2="183.2"/><g class="cls-8"><circle class="cls-9" cx="96.67" cy="157.93" r="38.69"/><circle class="cls-10" cx="97.53" cy="163.29" r="35.11"/></g><circle class="cls-2" cx="96.67" cy="157.93" r="38.69"/><g class="cls-11"><circle class="cls-9" cx="253.33" cy="157.93" r="38.69"/><circle class="cls-10" cx="254.19" cy="163.29" r="35.11"/><circle class="cls-6" cx="253.33" cy="205.47" r="35.11"/></g><circle class="cls-2" cx="253.33" cy="157.93" r="38.69"/><polygon class="cls-12" points="179.43 100.78 187.53 105.21 179.43 109.64 175 117.74 170.57 109.64 162.47 105.21 170.57 100.78 175 92.69 179.43 100.78"/><line class="cls-2" x1="158.35" y1="188.56" x2="200.46" y2="175"/><path class="cls-13" d="M144.78,125.35S116.49,76.52,80.35,110.2"/><path class="cls-13" d="M201.78,125.74s34.74,7,60.53-14.58"/><path class="cls-5" d="M44.09,261.94c0,12.12,1,35.47,7.45,55.67,10.52,32.8,29.75,39.68,44,39.68,26,0,35.4-24.87,38.72-39.7a11.1,11.1,0,1,0-21.66-4.85c-5,22.35-14.08,22.35-17.06,22.35-3.73,0-15.11,0-22.89-24.26-5.56-17.33-6.39-38.07-6.39-48.89"/><path class="cls-5" d="M308.82,285.82c0,12.4-1.46,36.3-11.23,57-11.84,25.08-32.32,38.33-59.25,38.33-27.19,0-46.13-15.89-53.32-44.76A11.1,11.1,0,1,1,206.56,331c6.24,25,21.13,27.93,31.78,27.93,18.23,0,31-8.37,39.17-25.6,7.93-16.81,9.11-37,9.11-47.55"/><rect class="cls-14" x="181.43" y="272.06" width="11.35" height="40.24" transform="translate(77.19 621.26) rotate(-128.9)"/><path class="cls-6" d="M157,316.45A11,11,0,1,0,158.67,301,11,11,0,0,0,157,316.45Zm12.69-10.24a5.34,5.34,0,1,1-7.51-.8A5.34,5.34,0,0,1,169.71,306.21Z"/><polygon class="cls-15" points="206.32 283.96 234.41 277.06 286.09 212.31 202.76 279.54 206.32 283.96"/><polygon class="cls-15" points="199.2 275.13 211.88 249.14 286.09 212.31 202.76 279.54 199.2 275.13"/><polygon class="cls-15" points="202.76 279.54 206.32 283.96 234.41 277.06 233.15 255.03 202.76 279.54"/><polygon class="cls-15" points="202.76 279.54 199.2 275.13 211.88 249.14 233.15 255.03 202.76 279.54"/><path class="cls-6" d="M195.78,344.83A11.12,11.12,0,0,1,185,336.41a118.19,118.19,0,0,1-2.77-36.29,11.1,11.1,0,0,1,22.09,2.24A96.35,96.35,0,0,0,206.56,331a11.09,11.09,0,0,1-8.08,13.45A10.92,10.92,0,0,1,195.78,344.83Z"/><path class="cls-15" d="M87.63,248l27.13,7.7,18.69,21.11,7.69-27.13L162.25,231l-27.13-7.69L116.43,202.2l-7.69,27.13Zm26.43-6a11.16,11.16,0,1,1,13.36,8.4A11.17,11.17,0,0,1,114.06,242Z"/><path class="cls-6" d="M123.47,326.27a11.1,11.1,0,0,0,10.82-8.68c4.4-19.61,3.05-40.14,3-41a11.1,11.1,0,0,0-22.15,1.53c0,.17,1.17,18.24-2.5,34.62A11.1,11.1,0,0,0,121,326,11.4,11.4,0,0,0,123.47,326.27Z"/><rect class="cls-7" x="-8.26" y="249.62" width="370.09" height="105.01"/><rect class="cls-16" x="255" y="168.85" width="39.53" height="224.47" transform="translate(555.85 6.32) rotate(90)"/><rect class="cls-17" x="236.57" y="179.23" width="74.38" height="203.7" transform="translate(554.84 7.32) rotate(90)"/><rect class="cls-18" x="236.57" y="190.6" width="74.38" height="180.96" transform="translate(554.84 7.32) rotate(90)"/><polygon class="cls-12" points="217.13 244.04 183.28 243.89 183.28 256.39 217.13 244.04"/><polygon class="cls-12" points="217.13 268.73 183.28 256.39 183.28 281.08 217.13 268.73"/><polygon class="cls-12" points="217.13 293.43 183.28 281.08 183.28 305.78 217.13 293.43"/><polygon class="cls-12" points="217.13 318.12 183.28 305.78 183.28 318.27 217.13 318.12"/><polygon class="cls-12" points="330.39 318.12 364.24 318.27 364.24 305.78 330.39 318.12"/><polygon class="cls-12" points="330.39 293.43 364.24 305.78 364.24 281.08 330.39 293.43"/><polygon class="cls-12" points="330.39 268.73 364.24 281.08 364.24 256.39 330.39 268.73"/><polygon class="cls-12" points="330.39 244.04 364.24 256.39 364.24 243.89 330.39 244.04"/><rect class="cls-19" x="236.57" y="224.45" width="74.38" height="113.26" transform="translate(554.84 7.32) rotate(90)"/><rect class="cls-17" x="245.28" y="243.35" width="56.95" height="92.89" transform="translate(563.55 16.03) rotate(90)"/><rect class="cls-17" x="140.11" y="275.1" width="74.38" height="11.96" transform="translate(458.38 103.78) rotate(90)"/><rect class="cls-20" x="236.27" y="178.94" width="74.38" height="204.29" transform="translate(554.54 7.62) rotate(90)"/><path class="cls-21" d="M252.35,285.46V265.54h8.54v2.84H255.2v5.7H258v2.84H255.2v8.54Z"/><path class="cls-21" d="M263.74,285.46V271.23h2.84v11.39h2.85V271.23h2.85v14.23Z"/><path class="cls-21" d="M275.12,268.38v-2.84h5.7v19.92H278V268.38Z"/><path class="cls-21" d="M286.51,268.38v-2.84h5.69v19.92h-2.84V268.38Z"/><path class="cls-21" d="M246.66,301.4v-5.69h2.84v5.69Zm0,8.54V307.1h2.84v2.84Zm2.84-14.23v-2.85h2.85v2.85Zm0,8.54V301.4h2.85v2.85Zm0,8.54v-2.85h2.85v2.85Zm2.85-14.23v-2.85h2.85v2.85Zm0,11.38v-5.69h2.85v5.69Z"/><path class="cls-21" d="M258,301.4v-2.84h2.85v-2.85h2.85v2.85h2.84v2.84h-2.84v8.54h2.84v2.85h-5.69V301.4Z"/><path class="cls-21" d="M269.43,301.4v-2.84h5.69v2.84Zm0,8.54V307.1h2.85v-2.85h2.84V301.4H278v11.39h-5.69v-2.85h2.84V307.1h-2.84v2.84Z"/><path class="cls-21" d="M280.82,309.94V301.4h2.84v8.54Zm2.84-8.54v-2.84h5.7v2.84Zm0,11.39v-2.85h5.7v2.85Z"/><path class="cls-21" d="M292.2,312.79V292.86h2.85v11.39h2.85v2.85h-2.85v5.69Zm5.7-8.54v-5.69h2.84v5.69Zm0,8.54V307.1h2.84v5.69Z"/><rect class="cls-16" x="159.68" y="111.89" width="39.53" height="224.47" transform="translate(403.57 44.68) rotate(90)"/><rect class="cls-18" x="141.25" y="122.28" width="74.38" height="203.7" transform="translate(402.57 45.69) rotate(90)"/><rect class="cls-19" x="141.25" y="133.65" width="74.38" height="180.96" transform="translate(402.57 45.69) rotate(90)"/><rect class="cls-17" x="141.25" y="167.5" width="74.38" height="113.26" transform="translate(402.57 45.69) rotate(90)"/><rect class="cls-22" x="149.96" y="186.39" width="56.95" height="92.89" transform="translate(411.28 54.4) rotate(90)"/><rect class="cls-23" x="257.97" y="186.61" width="10.63" height="11.28" transform="translate(455.53 -71.03) rotate(90)"/><rect class="cls-23" x="235.4" y="186.61" width="10.63" height="11.28" transform="translate(432.97 -48.46) rotate(90)"/><rect class="cls-23" x="246.68" y="197.24" width="10.63" height="11.28" transform="translate(454.87 -49.12) rotate(90)"/><rect class="cls-23" x="257.97" y="207.86" width="10.63" height="11.28" transform="translate(476.78 -49.78) rotate(90)"/><rect class="cls-23" x="235.4" y="207.86" width="10.63" height="11.28" transform="translate(454.22 -27.21) rotate(90)"/><rect class="cls-23" x="246.68" y="218.49" width="10.63" height="11.28" transform="translate(476.12 -27.87) rotate(90)"/><rect class="cls-23" x="257.97" y="229.11" width="10.63" height="11.28" transform="translate(498.03 -28.53) rotate(90)"/><rect class="cls-23" x="235.4" y="229.11" width="10.63" height="11.28" transform="translate(475.47 -5.96) rotate(90)"/><rect class="cls-23" x="246.68" y="239.74" width="10.63" height="11.28" transform="translate(497.37 -6.62) rotate(90)"/><rect class="cls-23" x="257.97" y="250.36" width="10.63" height="11.28" transform="translate(519.28 -7.28) rotate(90)"/><rect class="cls-23" x="235.4" y="250.36" width="10.63" height="11.28" transform="translate(496.72 15.29) rotate(90)"/><rect class="cls-23" x="110.86" y="186.61" width="10.63" height="11.28" transform="translate(308.42 76.08) rotate(90)"/><rect class="cls-23" x="88.29" y="186.61" width="10.63" height="11.28" transform="translate(285.86 98.65) rotate(90)"/><rect class="cls-23" x="99.57" y="197.24" width="10.63" height="11.28" transform="translate(307.76 97.99) rotate(90)"/><rect class="cls-23" x="110.86" y="207.86" width="10.63" height="11.28" transform="translate(329.67 97.33) rotate(90)"/><rect class="cls-23" x="88.29" y="207.86" width="10.63" height="11.28" transform="translate(307.11 119.9) rotate(90)"/><rect class="cls-23" x="99.57" y="218.49" width="10.63" height="11.28" transform="translate(329.01 119.24) rotate(90)"/><rect class="cls-23" x="110.86" y="229.11" width="10.63" height="11.28" transform="translate(350.92 118.58) rotate(90)"/><rect class="cls-23" x="88.29" y="229.11" width="10.63" height="11.28" transform="translate(328.36 141.15) rotate(90)"/><rect class="cls-23" x="99.57" y="239.74" width="10.63" height="11.28" transform="translate(350.26 140.49) rotate(90)"/><rect class="cls-23" x="110.86" y="250.36" width="10.63" height="11.28" transform="translate(372.17 139.83) rotate(90)"/><rect class="cls-23" x="88.29" y="250.36" width="10.63" height="11.28" transform="translate(349.61 162.4) rotate(90)"/><rect class="cls-24" x="114.24" y="186.27" width="39.53" height="224.47" transform="translate(432.51 164.5) rotate(90)"/><rect class="cls-19" x="95.81" y="196.66" width="74.38" height="203.7" transform="translate(431.5 165.5) rotate(90)"/><rect class="cls-17" x="95.81" y="208.02" width="74.38" height="180.96" transform="translate(431.5 165.5) rotate(90)"/><rect class="cls-24" x="95.81" y="241.87" width="74.38" height="113.26" transform="translate(431.5 165.5) rotate(90)"/><rect class="cls-19" x="104.52" y="260.77" width="56.95" height="92.89" transform="translate(440.22 174.21) rotate(90)"/><g class="cls-25"><polygon class="cls-23" points="212.6 267.59 206.53 278.68 200.46 267.59 189.37 261.52 200.46 255.46 206.53 244.36 212.6 255.46 223.69 261.52 212.6 267.59"/><polygon class="cls-23" points="212.6 316.99 206.53 328.08 200.46 316.99 189.37 310.92 200.46 304.85 206.53 293.76 212.6 304.85 223.69 310.92 212.6 316.99"/><polygon class="cls-23" points="209.19 288.89 206.53 293.76 203.86 288.89 198.99 286.22 203.86 283.56 206.53 278.68 209.19 283.56 214.07 286.22 209.19 288.89"/><polygon class="cls-23" points="209.19 338.28 206.53 343.15 203.86 338.28 198.99 335.62 203.86 332.95 206.53 328.08 209.19 332.95 214.07 335.62 209.19 338.28"/><polygon class="cls-23" points="53.38 329.62 59.45 318.53 65.51 329.62 76.61 335.69 65.51 341.76 59.45 352.85 53.38 341.76 42.29 335.69 53.38 329.62"/><polygon class="cls-23" points="53.38 280.23 59.45 269.14 65.51 280.23 76.61 286.3 65.51 292.36 59.45 303.46 53.38 292.36 42.29 286.3 53.38 280.23"/><polygon class="cls-23" points="56.78 308.33 59.45 303.46 62.11 308.33 66.98 310.99 62.11 313.66 59.45 318.53 56.78 313.66 51.91 310.99 56.78 308.33"/><polygon class="cls-23" points="56.78 258.94 59.45 254.06 62.11 258.94 66.98 261.6 62.11 264.26 59.45 269.14 56.78 264.26 51.91 261.6 56.78 258.94"/></g><path class="cls-23" d="M102.15,328.36V289.48h16.66V295H107.7v11.11h5.56v5.55H107.7v16.66Z"/><path class="cls-23" d="M124.37,300.59V295h5.55v5.55Zm0,27.77V317.25h5.55v5.56H141v5.55ZM129.92,295v-5.56h5.56V295Zm0,22.21v-11.1h5.56V295H141v11.11h-5.55v11.1Z"/><path class="cls-23" d="M146.59,328.36V289.48h16.66V295H152.14v11.11h5.55v5.55h-5.55v11.11h11.11v5.55Z"/><path class="cls-12" d="M148.06,254.12V215.24h11.11v5.55h-5.55V231.9h5.55v5.56h-5.55v11.1h5.55v5.56Zm11.11-22.22V220.79h5.56V231.9Zm0,16.66v-11.1h5.56v11.1Z"/><path class="cls-12" d="M170.28,226.35v-5.56h5.55v5.56Zm0,27.77V243h5.55v5.55h11.11v5.56Zm5.55-33.33v-5.55h5.56v5.55Zm0,22.22V231.9h5.56V220.79h5.55V231.9h-5.55V243Z"/><path class="cls-12" d="M192.5,254.12V215.24h16.66v5.55H198.05V231.9h5.56v5.56h-5.56v11.1h11.11v5.56Z"/><rect x="266.57" y="278.2" width="80.49" height="6.11" transform="translate(25.57 588.08) rotate(-90)"/><rect x="294.21" y="345.14" width="80.49" height="3.9" transform="translate(325.54 829.01) rotate(-135)"/><rect x="300.47" y="338.06" width="80.49" height="3.9" transform="translate(440.77 810.84) rotate(-146.94)"/><polygon points="302.76 315.51 301.44 323.69 306.82 325.49 314.43 317.07 307.93 313.94 302.76 315.51"/><path class="cls-6" d="M235.69,96a8.57,8.57,0,0,1-1.13-.07,10,10,0,0,1-8.82-11.05A70.12,70.12,0,0,1,249.9,39.06,10,10,0,0,1,263,54.16a50.54,50.54,0,0,0-17.41,32.92A10,10,0,0,1,235.69,96Z"/></g><g class="cls-26"><rect class="cls-7" x="274.65" y="90.36" width="39.53" height="224.47" transform="translate(43.61 -52) rotate(10.9)"/><rect class="cls-5" x="257.03" y="101.74" width="74.38" height="203.7" transform="translate(43.79 -51.95) rotate(10.9)"/><rect class="cls-15" x="257.03" y="113.1" width="74.38" height="180.96" transform="translate(43.79 -51.95) rotate(10.9)"/><rect class="cls-6" x="257.03" y="146.95" width="74.38" height="113.26" transform="matrix(0.98, 0.19, -0.19, 0.98, 43.79, -51.95)"/><rect class="cls-27" x="274.3" y="158.78" width="56.95" height="92.89" transform="translate(44.25 -53.53) rotate(10.9)"/><rect class="cls-23" x="273.65" y="108.61" width="10.63" height="11.28" transform="translate(26.63 -50.67) rotate(10.9)"/><rect class="cls-23" x="269.38" y="130.77" width="10.63" height="11.28" transform="translate(30.74 -49.47) rotate(10.9)"/><rect class="cls-23" x="281.95" y="121.7" width="10.63" height="11.28" transform="translate(29.25 -52.01) rotate(10.9)"/><rect class="cls-23" x="294.51" y="112.63" width="10.63" height="11.28" transform="translate(27.76 -54.54) rotate(10.9)"/><rect class="cls-23" x="290.25" y="134.78" width="10.63" height="11.28" transform="translate(31.87 -53.34) rotate(10.9)"/><rect class="cls-23" x="302.81" y="125.71" width="10.63" height="11.28" transform="translate(30.39 -55.88) rotate(10.9)"/><rect class="cls-23" x="315.38" y="116.64" width="10.63" height="11.28" transform="translate(28.9 -58.42) rotate(10.9)"/><rect class="cls-23" x="311.12" y="138.8" width="10.63" height="11.28" transform="translate(33.01 -57.21) rotate(10.9)"/><rect class="cls-23" x="323.68" y="129.73" width="10.63" height="11.28" transform="translate(31.52 -59.75) rotate(10.9)"/><rect class="cls-23" x="336.25" y="120.66" width="10.63" height="11.28" transform="translate(30.03 -62.29) rotate(10.9)"/><rect class="cls-23" x="331.98" y="142.82" width="10.63" height="11.28" transform="translate(34.14 -61.08) rotate(10.9)"/><rect class="cls-23" x="245.84" y="253.07" width="10.63" height="11.28" transform="translate(53.43 -42.81) rotate(10.9)"/><rect class="cls-23" x="241.57" y="275.22" width="10.63" height="11.28" transform="translate(57.54 -41.61) rotate(10.9)"/><rect class="cls-23" x="254.14" y="266.15" width="10.63" height="11.28" transform="translate(56.06 -44.14) rotate(10.9)"/><rect class="cls-23" x="266.7" y="257.08" width="10.63" height="11.28" transform="translate(54.57 -46.68) rotate(10.9)"/><rect class="cls-23" x="262.44" y="279.24" width="10.63" height="11.28" transform="translate(58.68 -45.48) rotate(10.9)"/><rect class="cls-23" x="275.01" y="270.17" width="10.63" height="11.28" transform="translate(57.19 -48.02) rotate(10.9)"/><rect class="cls-23" x="287.57" y="261.1" width="10.63" height="11.28" transform="translate(55.7 -50.56) rotate(10.9)"/><rect class="cls-23" x="283.31" y="283.26" width="10.63" height="11.28" transform="translate(59.81 -49.35) rotate(10.9)"/><rect class="cls-23" x="295.87" y="274.19" width="10.63" height="11.28" transform="translate(58.33 -51.89) rotate(10.9)"/><rect class="cls-23" x="308.44" y="265.12" width="10.63" height="11.28" transform="translate(56.84 -54.43) rotate(10.9)"/><rect class="cls-23" x="304.17" y="287.28" width="10.63" height="11.28" transform="translate(60.95 -53.22) rotate(10.9)"/><rect class="cls-15" x="329.09" y="126.09" width="183.3" height="203.7" transform="matrix(0.98, 0.19, -0.19, 0.98, 50.67, -75.42)"/><rect class="cls-5" x="329.09" y="137.46" width="183.3" height="180.96" transform="translate(50.67 -75.42) rotate(10.9)"/></g><path class="cls-28" d="M131.32,46.32c-9.17,3.26-2,10.36-9.11,10.36-2.12,0-3.61-1.14-3.61-2.63,0-6.82,2.07-10.77,8.65-13.12,7.33-2.57,9.16-4.12,9.16-8.24,0-4.53-2.92-7.5-10-7.5h-8c-5.73,0-9.39,3.49-9.39,8.87V35c0,1.43-1.43,2.35-3.5,2.35s-3.55-.92-3.55-2.35v-.92c0-8.64,5.67-15.86,16.44-15.86h8c10.65,0,17,5.61,17,14.49C143.4,40.71,139.56,43.4,131.32,46.32Zm-9.11,22.1c-2.4,0-4-1-4-2.63V62.47c0-1.66,1.61-2.64,4-2.64s4,1,4,2.64v3.32C126.22,67.45,124.62,68.42,122.21,68.42Z"/></g></svg>