<svg xmlns="http://www.w3.org/2000/svg" xmlns:xlink="http://www.w3.org/1999/xlink" width="2125.565" height="666" viewBox="0 0 2125.565 666">
  <defs>
    <clipPath id="clip-path">
      <rect id="Rectangle_405" data-name="Rectangle 405" width="2125.565" height="666" fill="none"/>
    </clipPath>
  </defs>
  <g id="Group_352" data-name="Group 352" transform="translate(199.68 -1609)">
    <rect id="Rectangle_5" data-name="Rectangle 5" width="1925.885" height="664.844" transform="translate(0 1609)" fill="#f2fff7"/>
    <g id="Group_351" data-name="Group 351" transform="translate(-199.68 1609)" opacity="0.25">
      <g id="Group_350" data-name="Group 350" transform="translate(0 0)" clip-path="url(#clip-path)">
        <g id="Group_349" data-name="Group 349" transform="translate(-55.7 -175.468)">
          <g id="Group_317" data-name="Group 317" transform="translate(0 757.463)">
            <path id="Path_113" data-name="Path 113" d="M-2873.1,490.6l-22.717-42.081h-45.434l68.151,126.244,68.151-126.244h-45.434Z" transform="translate(3077.554 -448.518)" fill="#e1faed"/>
            <path id="Path_114" data-name="Path 114" d="M-2934.662,597.224l-22.717-42.081h-45.434l68.151,126.244,68.151-126.244h-45.434Z" transform="translate(3070.963 -428.899)" fill="#e1faed"/>
            <path id="Path_115" data-name="Path 115" d="M-2811.542,597.224l-22.717-42.081h-45.434l68.151,126.244,68.15-126.244h-45.434Z" transform="translate(3084.145 -428.899)" fill="#e1faed"/>
            <path id="Path_116" data-name="Path 116" d="M-2996.222,490.6l-22.717-42.081h-45.434l68.151,126.244,68.151-126.244H-2973.5Z" transform="translate(3064.373 -448.518)" fill="#e1faed"/>
          </g>
          <g id="Group_318" data-name="Group 318" transform="translate(272.603 757.463)">
            <path id="Path_117" data-name="Path 117" d="M-2626.862,490.6l-22.717-42.081h-45.434l68.151,126.244,68.151-126.244h-45.434Z" transform="translate(2831.315 -448.518)" fill="#e1faed"/>
            <path id="Path_118" data-name="Path 118" d="M-2688.422,597.224l-22.717-42.081h-45.434l68.151,126.244,68.15-126.244h-45.433Z" transform="translate(2824.724 -428.899)" fill="#e1faed"/>
            <path id="Path_119" data-name="Path 119" d="M-2565.3,597.224l-22.718-42.081h-45.434l68.151,126.244,68.151-126.244h-45.434Z" transform="translate(2837.906 -428.899)" fill="#e1faed"/>
            <path id="Path_120" data-name="Path 120" d="M-2749.982,490.6l-22.717-42.081h-45.434l68.151,126.244,68.15-126.244h-45.434Z" transform="translate(2818.133 -448.518)" fill="#e1faed"/>
          </g>
          <g id="Group_319" data-name="Group 319" transform="translate(545.207 757.463)">
            <path id="Path_121" data-name="Path 121" d="M-2380.623,490.6l-22.717-42.081h-45.433l68.15,126.244,68.151-126.244h-45.433Z" transform="translate(2585.075 -448.518)" fill="#e1faed"/>
            <path id="Path_122" data-name="Path 122" d="M-2442.183,597.224l-22.717-42.081h-45.434l68.151,126.244,68.151-126.244h-45.434Z" transform="translate(2578.484 -428.899)" fill="#e1faed"/>
            <path id="Path_123" data-name="Path 123" d="M-2319.063,597.224l-22.717-42.081h-45.434l68.151,126.244,68.151-126.244h-45.434Z" transform="translate(2591.666 -428.899)" fill="#e1faed"/>
            <path id="Path_124" data-name="Path 124" d="M-2503.742,490.6l-22.717-42.081h-45.434l68.151,126.244,68.151-126.244h-45.434Z" transform="translate(2571.894 -448.518)" fill="#e1faed"/>
          </g>
          <g id="Group_320" data-name="Group 320" transform="translate(817.81 757.463)">
            <path id="Path_125" data-name="Path 125" d="M-2134.384,490.6l-22.717-42.081h-45.434l68.151,126.244,68.151-126.244h-45.434Z" transform="translate(2338.836 -448.518)" fill="#e1faed"/>
            <path id="Path_126" data-name="Path 126" d="M-2195.943,597.224l-22.717-42.081h-45.434l68.151,126.244,68.151-126.244h-45.434Z" transform="translate(2332.245 -428.899)" fill="#e1faed"/>
            <path id="Path_127" data-name="Path 127" d="M-2072.823,597.224l-22.717-42.081h-45.434l68.151,126.244,68.151-126.244h-45.434Z" transform="translate(2345.427 -428.899)" fill="#e1faed"/>
            <path id="Path_128" data-name="Path 128" d="M-2257.5,490.6l-22.717-42.081h-45.434l68.151,126.244,68.151-126.244h-45.434Z" transform="translate(2325.654 -448.518)" fill="#e1faed"/>
          </g>
          <g id="Group_321" data-name="Group 321" transform="translate(1090.413 757.463)">
            <path id="Path_129" data-name="Path 129" d="M-1888.144,490.6l-22.717-42.081h-45.434l68.151,126.244,68.151-126.244h-45.434Z" transform="translate(2092.596 -448.518)" fill="#e1faed"/>
            <path id="Path_130" data-name="Path 130" d="M-1949.7,597.224l-22.717-42.081h-45.434l68.151,126.244,68.151-126.244h-45.434Z" transform="translate(2086.005 -428.899)" fill="#e1faed"/>
            <path id="Path_131" data-name="Path 131" d="M-1826.584,597.224l-22.717-42.081h-45.434l68.151,126.244,68.151-126.244h-45.434Z" transform="translate(2099.187 -428.899)" fill="#e1faed"/>
            <path id="Path_132" data-name="Path 132" d="M-2011.264,490.6l-22.717-42.081h-45.434l68.151,126.244,68.151-126.244h-45.434Z" transform="translate(2079.414 -448.518)" fill="#e1faed"/>
          </g>
          <g id="Group_322" data-name="Group 322" transform="translate(1363.016 757.463)">
            <path id="Path_133" data-name="Path 133" d="M-1641.9,490.6l-22.717-42.081h-45.434l68.151,126.244,68.151-126.244h-45.434Z" transform="translate(1846.357 -448.518)" fill="#e1faed"/>
            <path id="Path_134" data-name="Path 134" d="M-1703.464,597.224l-22.717-42.081h-45.434l68.151,126.244,68.151-126.244h-45.434Z" transform="translate(1839.766 -428.899)" fill="#e1faed"/>
            <path id="Path_135" data-name="Path 135" d="M-1580.344,597.224l-22.717-42.081H-1648.5l68.151,126.244,68.151-126.244h-45.434Z" transform="translate(1852.948 -428.899)" fill="#e1faed"/>
            <path id="Path_136" data-name="Path 136" d="M-1765.024,490.6l-22.717-42.081h-45.434l68.151,126.244,68.151-126.244h-45.434Z" transform="translate(1833.175 -448.518)" fill="#e1faed"/>
          </g>
          <g id="Group_323" data-name="Group 323" transform="translate(1635.62 757.463)">
            <path id="Path_137" data-name="Path 137" d="M-1395.665,490.6l-22.717-42.081h-45.434l68.151,126.244,68.151-126.244h-45.434Z" transform="translate(1600.117 -448.518)" fill="#e1faed"/>
            <path id="Path_138" data-name="Path 138" d="M-1457.225,597.224l-22.717-42.081h-45.434l68.151,126.244,68.151-126.244h-45.434Z" transform="translate(1593.526 -428.899)" fill="#e1faed"/>
            <path id="Path_139" data-name="Path 139" d="M-1334.1,597.224l-22.717-42.081h-45.434l68.151,126.244,68.151-126.244h-45.434Z" transform="translate(1606.708 -428.899)" fill="#e1faed"/>
            <path id="Path_140" data-name="Path 140" d="M-1518.785,490.6l-22.717-42.081h-45.434l68.151,126.244,68.151-126.244h-45.434Z" transform="translate(1586.936 -448.518)" fill="#e1faed"/>
          </g>
          <g id="Group_324" data-name="Group 324" transform="translate(1908.223 757.463)">
            <path id="Path_141" data-name="Path 141" d="M-1149.425,490.6l-22.717-42.081h-45.434l68.151,126.244,68.151-126.244h-45.434Z" transform="translate(1353.878 -448.518)" fill="#e1faed"/>
            <path id="Path_142" data-name="Path 142" d="M-1210.985,597.224l-22.717-42.081h-45.434l68.151,126.244,68.151-126.244h-45.434Z" transform="translate(1347.287 -428.899)" fill="#e1faed"/>
            <path id="Path_143" data-name="Path 143" d="M-1087.865,597.224l-22.717-42.081h-45.434l68.151,126.244,68.151-126.244h-45.434Z" transform="translate(1360.469 -428.899)" fill="#e1faed"/>
            <path id="Path_144" data-name="Path 144" d="M-1272.545,490.6l-22.717-42.081H-1340.7l68.151,126.244,68.151-126.244h-45.434Z" transform="translate(1340.696 -448.518)" fill="#e1faed"/>
          </g>
          <g id="Group_325" data-name="Group 325" transform="translate(0 504.975)">
            <path id="Path_145" data-name="Path 145" d="M-2873.1,277.349l-22.717-42.081h-45.434l68.151,126.244,68.151-126.244h-45.434Z" transform="translate(3077.554 -235.268)" fill="#e1faed"/>
            <path id="Path_146" data-name="Path 146" d="M-2934.662,383.974l-22.717-42.081h-45.434l68.151,126.244,68.151-126.244h-45.434Z" transform="translate(3070.963 -215.649)" fill="#e1faed"/>
            <path id="Path_147" data-name="Path 147" d="M-2811.542,383.974l-22.717-42.081h-45.434l68.151,126.244,68.15-126.244h-45.434Z" transform="translate(3084.145 -215.649)" fill="#e1faed"/>
            <path id="Path_148" data-name="Path 148" d="M-2996.222,277.349l-22.717-42.081h-45.434l68.151,126.244,68.151-126.244H-2973.5Z" transform="translate(3064.373 -235.268)" fill="#e1faed"/>
          </g>
          <g id="Group_326" data-name="Group 326" transform="translate(272.603 504.975)">
            <path id="Path_149" data-name="Path 149" d="M-2626.862,277.349l-22.717-42.081h-45.434l68.151,126.244,68.151-126.244h-45.434Z" transform="translate(2831.315 -235.268)" fill="#e1faed"/>
            <path id="Path_150" data-name="Path 150" d="M-2688.422,383.974l-22.717-42.081h-45.434l68.151,126.244,68.15-126.244h-45.433Z" transform="translate(2824.724 -215.649)" fill="#e1faed"/>
            <path id="Path_151" data-name="Path 151" d="M-2565.3,383.974l-22.718-42.081h-45.434l68.151,126.244,68.151-126.244h-45.434Z" transform="translate(2837.906 -215.649)" fill="#e1faed"/>
            <path id="Path_152" data-name="Path 152" d="M-2749.982,277.349l-22.717-42.081h-45.434l68.151,126.244,68.15-126.244h-45.434Z" transform="translate(2818.133 -235.268)" fill="#e1faed"/>
          </g>
          <g id="Group_327" data-name="Group 327" transform="translate(545.207 504.975)">
            <path id="Path_153" data-name="Path 153" d="M-2380.623,277.349l-22.717-42.081h-45.433l68.15,126.244,68.151-126.244h-45.433Z" transform="translate(2585.075 -235.268)" fill="#e1faed"/>
            <path id="Path_154" data-name="Path 154" d="M-2442.183,383.974l-22.717-42.081h-45.434l68.151,126.244,68.151-126.244h-45.434Z" transform="translate(2578.484 -215.649)" fill="#e1faed"/>
            <path id="Path_155" data-name="Path 155" d="M-2319.063,383.974l-22.717-42.081h-45.434l68.151,126.244,68.151-126.244h-45.434Z" transform="translate(2591.666 -215.649)" fill="#e1faed"/>
            <path id="Path_156" data-name="Path 156" d="M-2503.742,277.349l-22.717-42.081h-45.434l68.151,126.244,68.151-126.244h-45.434Z" transform="translate(2571.894 -235.268)" fill="#e1faed"/>
          </g>
          <g id="Group_328" data-name="Group 328" transform="translate(817.81 504.975)">
            <path id="Path_157" data-name="Path 157" d="M-2134.384,277.349l-22.717-42.081h-45.434l68.151,126.244,68.151-126.244h-45.434Z" transform="translate(2338.836 -235.268)" fill="#e1faed"/>
            <path id="Path_158" data-name="Path 158" d="M-2195.943,383.974l-22.717-42.081h-45.434l68.151,126.244,68.151-126.244h-45.434Z" transform="translate(2332.245 -215.649)" fill="#e1faed"/>
            <path id="Path_159" data-name="Path 159" d="M-2072.823,383.974l-22.717-42.081h-45.434l68.151,126.244,68.151-126.244h-45.434Z" transform="translate(2345.427 -215.649)" fill="#e1faed"/>
            <path id="Path_160" data-name="Path 160" d="M-2257.5,277.349l-22.717-42.081h-45.434l68.151,126.244,68.151-126.244h-45.434Z" transform="translate(2325.654 -235.268)" fill="#e1faed"/>
          </g>
          <g id="Group_329" data-name="Group 329" transform="translate(1090.413 504.975)">
            <path id="Path_161" data-name="Path 161" d="M-1888.144,277.349l-22.717-42.081h-45.434l68.151,126.244,68.151-126.244h-45.434Z" transform="translate(2092.596 -235.268)" fill="#e1faed"/>
            <path id="Path_162" data-name="Path 162" d="M-1949.7,383.974l-22.717-42.081h-45.434l68.151,126.244,68.151-126.244h-45.434Z" transform="translate(2086.005 -215.649)" fill="#e1faed"/>
            <path id="Path_163" data-name="Path 163" d="M-1826.584,383.974l-22.717-42.081h-45.434l68.151,126.244,68.151-126.244h-45.434Z" transform="translate(2099.187 -215.649)" fill="#e1faed"/>
            <path id="Path_164" data-name="Path 164" d="M-2011.264,277.349l-22.717-42.081h-45.434l68.151,126.244,68.151-126.244h-45.434Z" transform="translate(2079.414 -235.268)" fill="#e1faed"/>
          </g>
          <g id="Group_330" data-name="Group 330" transform="translate(1363.016 504.975)">
            <path id="Path_165" data-name="Path 165" d="M-1641.9,277.349l-22.717-42.081h-45.434l68.151,126.244,68.151-126.244h-45.434Z" transform="translate(1846.357 -235.268)" fill="#e1faed"/>
            <path id="Path_166" data-name="Path 166" d="M-1703.464,383.974l-22.717-42.081h-45.434l68.151,126.244,68.151-126.244h-45.434Z" transform="translate(1839.766 -215.649)" fill="#e1faed"/>
            <path id="Path_167" data-name="Path 167" d="M-1580.344,383.974l-22.717-42.081H-1648.5l68.151,126.244,68.151-126.244h-45.434Z" transform="translate(1852.948 -215.649)" fill="#e1faed"/>
            <path id="Path_168" data-name="Path 168" d="M-1765.024,277.349l-22.717-42.081h-45.434l68.151,126.244,68.151-126.244h-45.434Z" transform="translate(1833.175 -235.268)" fill="#e1faed"/>
          </g>
          <g id="Group_331" data-name="Group 331" transform="translate(1635.62 504.975)">
            <path id="Path_169" data-name="Path 169" d="M-1395.665,277.349l-22.717-42.081h-45.434l68.151,126.244,68.151-126.244h-45.434Z" transform="translate(1600.117 -235.268)" fill="#e1faed"/>
            <path id="Path_170" data-name="Path 170" d="M-1457.225,383.974l-22.717-42.081h-45.434l68.151,126.244,68.151-126.244h-45.434Z" transform="translate(1593.526 -215.649)" fill="#e1faed"/>
            <path id="Path_171" data-name="Path 171" d="M-1334.1,383.974l-22.717-42.081h-45.434l68.151,126.244,68.151-126.244h-45.434Z" transform="translate(1606.708 -215.649)" fill="#e1faed"/>
            <path id="Path_172" data-name="Path 172" d="M-1518.785,277.349l-22.717-42.081h-45.434l68.151,126.244,68.151-126.244h-45.434Z" transform="translate(1586.936 -235.268)" fill="#e1faed"/>
          </g>
          <g id="Group_332" data-name="Group 332" transform="translate(1908.223 504.975)">
            <path id="Path_173" data-name="Path 173" d="M-1149.425,277.349l-22.717-42.081h-45.434l68.151,126.244,68.151-126.244h-45.434Z" transform="translate(1353.878 -235.268)" fill="#e1faed"/>
            <path id="Path_174" data-name="Path 174" d="M-1210.985,383.974l-22.717-42.081h-45.434l68.151,126.244,68.151-126.244h-45.434Z" transform="translate(1347.287 -215.649)" fill="#e1faed"/>
            <path id="Path_175" data-name="Path 175" d="M-1087.865,383.974l-22.717-42.081h-45.434l68.151,126.244,68.151-126.244h-45.434Z" transform="translate(1360.469 -215.649)" fill="#e1faed"/>
            <path id="Path_176" data-name="Path 176" d="M-1272.545,277.349l-22.717-42.081H-1340.7l68.151,126.244,68.151-126.244h-45.434Z" transform="translate(1340.696 -235.268)" fill="#e1faed"/>
          </g>
          <g id="Group_333" data-name="Group 333" transform="translate(0 252.488)">
            <path id="Path_177" data-name="Path 177" d="M-2873.1,64.1l-22.717-42.081h-45.434l68.151,126.244,68.151-126.244h-45.434Z" transform="translate(3077.554 -22.018)" fill="#e1faed"/>
            <path id="Path_178" data-name="Path 178" d="M-2934.662,170.724l-22.717-42.081h-45.434l68.151,126.244,68.151-126.244h-45.434Z" transform="translate(3070.963 -2.399)" fill="#e1faed"/>
            <path id="Path_179" data-name="Path 179" d="M-2811.542,170.724l-22.717-42.081h-45.434l68.151,126.244,68.15-126.244h-45.434Z" transform="translate(3084.145 -2.399)" fill="#e1faed"/>
            <path id="Path_180" data-name="Path 180" d="M-2996.222,64.1l-22.717-42.081h-45.434l68.151,126.244,68.151-126.244H-2973.5Z" transform="translate(3064.373 -22.018)" fill="#e1faed"/>
          </g>
          <g id="Group_334" data-name="Group 334" transform="translate(272.603 252.488)">
            <path id="Path_181" data-name="Path 181" d="M-2626.862,64.1l-22.717-42.081h-45.434l68.151,126.244,68.151-126.244h-45.434Z" transform="translate(2831.315 -22.018)" fill="#e1faed"/>
            <path id="Path_182" data-name="Path 182" d="M-2688.422,170.724l-22.717-42.081h-45.434l68.151,126.244,68.15-126.244h-45.433Z" transform="translate(2824.724 -2.399)" fill="#e1faed"/>
            <path id="Path_183" data-name="Path 183" d="M-2565.3,170.724l-22.718-42.081h-45.434l68.151,126.244,68.151-126.244h-45.434Z" transform="translate(2837.906 -2.399)" fill="#e1faed"/>
            <path id="Path_184" data-name="Path 184" d="M-2749.982,64.1-2772.7,22.018h-45.434l68.151,126.244,68.15-126.244h-45.434Z" transform="translate(2818.133 -22.018)" fill="#e1faed"/>
          </g>
          <g id="Group_335" data-name="Group 335" transform="translate(545.207 252.488)">
            <path id="Path_185" data-name="Path 185" d="M-2380.623,64.1l-22.717-42.081h-45.433l68.15,126.244,68.151-126.244h-45.433Z" transform="translate(2585.075 -22.018)" fill="#e1faed"/>
            <path id="Path_186" data-name="Path 186" d="M-2442.183,170.724l-22.717-42.081h-45.434l68.151,126.244,68.151-126.244h-45.434Z" transform="translate(2578.484 -2.399)" fill="#e1faed"/>
            <path id="Path_187" data-name="Path 187" d="M-2319.063,170.724l-22.717-42.081h-45.434l68.151,126.244,68.151-126.244h-45.434Z" transform="translate(2591.666 -2.399)" fill="#e1faed"/>
            <path id="Path_188" data-name="Path 188" d="M-2503.742,64.1l-22.717-42.081h-45.434l68.151,126.244,68.151-126.244h-45.434Z" transform="translate(2571.894 -22.018)" fill="#e1faed"/>
          </g>
          <g id="Group_336" data-name="Group 336" transform="translate(817.81 252.488)">
            <path id="Path_189" data-name="Path 189" d="M-2134.384,64.1-2157.1,22.018h-45.434l68.151,126.244,68.151-126.244h-45.434Z" transform="translate(2338.836 -22.018)" fill="#e1faed"/>
            <path id="Path_190" data-name="Path 190" d="M-2195.943,170.724l-22.717-42.081h-45.434l68.151,126.244,68.151-126.244h-45.434Z" transform="translate(2332.245 -2.399)" fill="#e1faed"/>
            <path id="Path_191" data-name="Path 191" d="M-2072.823,170.724l-22.717-42.081h-45.434l68.151,126.244,68.151-126.244h-45.434Z" transform="translate(2345.427 -2.399)" fill="#e1faed"/>
            <path id="Path_192" data-name="Path 192" d="M-2257.5,64.1l-22.717-42.081h-45.434l68.151,126.244,68.151-126.244h-45.434Z" transform="translate(2325.654 -22.018)" fill="#e1faed"/>
          </g>
          <g id="Group_337" data-name="Group 337" transform="translate(1090.413 252.488)">
            <path id="Path_193" data-name="Path 193" d="M-1888.144,64.1l-22.717-42.081h-45.434l68.151,126.244,68.151-126.244h-45.434Z" transform="translate(2092.596 -22.018)" fill="#e1faed"/>
            <path id="Path_194" data-name="Path 194" d="M-1949.7,170.724l-22.717-42.081h-45.434l68.151,126.244,68.151-126.244h-45.434Z" transform="translate(2086.005 -2.399)" fill="#e1faed"/>
            <path id="Path_195" data-name="Path 195" d="M-1826.584,170.724l-22.717-42.081h-45.434l68.151,126.244,68.151-126.244h-45.434Z" transform="translate(2099.187 -2.399)" fill="#e1faed"/>
            <path id="Path_196" data-name="Path 196" d="M-2011.264,64.1l-22.717-42.081h-45.434l68.151,126.244,68.151-126.244h-45.434Z" transform="translate(2079.414 -22.018)" fill="#e1faed"/>
          </g>
          <g id="Group_338" data-name="Group 338" transform="translate(1363.016 252.488)">
            <path id="Path_197" data-name="Path 197" d="M-1641.9,64.1l-22.717-42.081h-45.434l68.151,126.244,68.151-126.244h-45.434Z" transform="translate(1846.357 -22.018)" fill="#e1faed"/>
            <path id="Path_198" data-name="Path 198" d="M-1703.464,170.724l-22.717-42.081h-45.434l68.151,126.244,68.151-126.244h-45.434Z" transform="translate(1839.766 -2.399)" fill="#e1faed"/>
            <path id="Path_199" data-name="Path 199" d="M-1580.344,170.724l-22.717-42.081H-1648.5l68.151,126.244,68.151-126.244h-45.434Z" transform="translate(1852.948 -2.399)" fill="#e1faed"/>
            <path id="Path_200" data-name="Path 200" d="M-1765.024,64.1l-22.717-42.081h-45.434l68.151,126.244,68.151-126.244h-45.434Z" transform="translate(1833.175 -22.018)" fill="#e1faed"/>
          </g>
          <g id="Group_339" data-name="Group 339" transform="translate(1635.62 252.488)">
            <path id="Path_201" data-name="Path 201" d="M-1395.665,64.1l-22.717-42.081h-45.434l68.151,126.244,68.151-126.244h-45.434Z" transform="translate(1600.117 -22.018)" fill="#e1faed"/>
            <path id="Path_202" data-name="Path 202" d="M-1457.225,170.724l-22.717-42.081h-45.434l68.151,126.244,68.151-126.244h-45.434Z" transform="translate(1593.526 -2.399)" fill="#e1faed"/>
            <path id="Path_203" data-name="Path 203" d="M-1334.1,170.724l-22.717-42.081h-45.434l68.151,126.244,68.151-126.244h-45.434Z" transform="translate(1606.708 -2.399)" fill="#e1faed"/>
            <path id="Path_204" data-name="Path 204" d="M-1518.785,64.1-1541.5,22.018h-45.434l68.151,126.244,68.151-126.244h-45.434Z" transform="translate(1586.936 -22.018)" fill="#e1faed"/>
          </g>
          <g id="Group_340" data-name="Group 340" transform="translate(1908.223 252.488)">
            <path id="Path_205" data-name="Path 205" d="M-1149.425,64.1l-22.717-42.081h-45.434l68.151,126.244,68.151-126.244h-45.434Z" transform="translate(1353.878 -22.018)" fill="#e1faed"/>
            <path id="Path_206" data-name="Path 206" d="M-1210.985,170.724l-22.717-42.081h-45.434l68.151,126.244,68.151-126.244h-45.434Z" transform="translate(1347.287 -2.399)" fill="#e1faed"/>
            <path id="Path_207" data-name="Path 207" d="M-1087.865,170.724l-22.717-42.081h-45.434l68.151,126.244,68.151-126.244h-45.434Z" transform="translate(1360.469 -2.399)" fill="#e1faed"/>
            <path id="Path_208" data-name="Path 208" d="M-1272.545,64.1l-22.717-42.081H-1340.7l68.151,126.244,68.151-126.244h-45.434Z" transform="translate(1340.696 -22.018)" fill="#e1faed"/>
          </g>
          <g id="Group_341" data-name="Group 341">
            <path id="Path_209" data-name="Path 209" d="M-2873.1-149.15l-22.717-42.081h-45.434L-2873.1-64.988l68.151-126.244h-45.434Z" transform="translate(3077.554 191.232)" fill="#e1faed"/>
            <path id="Path_210" data-name="Path 210" d="M-2934.662-42.525l-22.717-42.081h-45.434l68.151,126.244,68.151-126.244h-45.434Z" transform="translate(3070.963 210.851)" fill="#e1faed"/>
            <path id="Path_211" data-name="Path 211" d="M-2811.542-42.525l-22.717-42.081h-45.434l68.151,126.244,68.15-126.244h-45.434Z" transform="translate(3084.145 210.851)" fill="#e1faed"/>
            <path id="Path_212" data-name="Path 212" d="M-2996.222-149.15l-22.717-42.081h-45.434l68.151,126.244,68.151-126.244H-2973.5Z" transform="translate(3064.373 191.232)" fill="#e1faed"/>
          </g>
          <g id="Group_342" data-name="Group 342" transform="translate(272.603)">
            <path id="Path_213" data-name="Path 213" d="M-2626.862-149.15l-22.717-42.081h-45.434l68.151,126.244,68.151-126.244h-45.434Z" transform="translate(2831.315 191.232)" fill="#e1faed"/>
            <path id="Path_214" data-name="Path 214" d="M-2688.422-42.525l-22.717-42.081h-45.434l68.151,126.244,68.15-126.244h-45.433Z" transform="translate(2824.724 210.851)" fill="#e1faed"/>
            <path id="Path_215" data-name="Path 215" d="M-2565.3-42.525l-22.718-42.081h-45.434L-2565.3,41.637l68.151-126.244h-45.434Z" transform="translate(2837.906 210.851)" fill="#e1faed"/>
            <path id="Path_216" data-name="Path 216" d="M-2749.982-149.15l-22.717-42.081h-45.434l68.151,126.244,68.15-126.244h-45.434Z" transform="translate(2818.133 191.232)" fill="#e1faed"/>
          </g>
          <g id="Group_343" data-name="Group 343" transform="translate(545.207)">
            <path id="Path_217" data-name="Path 217" d="M-2380.623-149.15l-22.717-42.081h-45.433l68.15,126.244,68.151-126.244h-45.433Z" transform="translate(2585.075 191.232)" fill="#e1faed"/>
            <path id="Path_218" data-name="Path 218" d="M-2442.183-42.525-2464.9-84.607h-45.434l68.151,126.244,68.151-126.244h-45.434Z" transform="translate(2578.484 210.851)" fill="#e1faed"/>
            <path id="Path_219" data-name="Path 219" d="M-2319.063-42.525l-22.717-42.081h-45.434l68.151,126.244,68.151-126.244h-45.434Z" transform="translate(2591.666 210.851)" fill="#e1faed"/>
            <path id="Path_220" data-name="Path 220" d="M-2503.742-149.15l-22.717-42.081h-45.434l68.151,126.244,68.151-126.244h-45.434Z" transform="translate(2571.894 191.232)" fill="#e1faed"/>
          </g>
          <g id="Group_344" data-name="Group 344" transform="translate(817.81)">
            <path id="Path_221" data-name="Path 221" d="M-2134.384-149.15l-22.717-42.081h-45.434l68.151,126.244,68.151-126.244h-45.434Z" transform="translate(2338.836 191.232)" fill="#e1faed"/>
            <path id="Path_222" data-name="Path 222" d="M-2195.943-42.525l-22.717-42.081h-45.434l68.151,126.244,68.151-126.244h-45.434Z" transform="translate(2332.245 210.851)" fill="#e1faed"/>
            <path id="Path_223" data-name="Path 223" d="M-2072.823-42.525l-22.717-42.081h-45.434l68.151,126.244,68.151-126.244h-45.434Z" transform="translate(2345.427 210.851)" fill="#e1faed"/>
            <path id="Path_224" data-name="Path 224" d="M-2257.5-149.15l-22.717-42.081h-45.434L-2257.5-64.988l68.151-126.244h-45.434Z" transform="translate(2325.654 191.232)" fill="#e1faed"/>
          </g>
          <g id="Group_345" data-name="Group 345" transform="translate(1090.413)">
            <path id="Path_225" data-name="Path 225" d="M-1888.144-149.15l-22.717-42.081h-45.434l68.151,126.244,68.151-126.244h-45.434Z" transform="translate(2092.596 191.232)" fill="#e1faed"/>
            <path id="Path_226" data-name="Path 226" d="M-1949.7-42.525l-22.717-42.081h-45.434L-1949.7,41.637l68.151-126.244h-45.434Z" transform="translate(2086.005 210.851)" fill="#e1faed"/>
            <path id="Path_227" data-name="Path 227" d="M-1826.584-42.525-1849.3-84.607h-45.434l68.151,126.244,68.151-126.244h-45.434Z" transform="translate(2099.187 210.851)" fill="#e1faed"/>
            <path id="Path_228" data-name="Path 228" d="M-2011.264-149.15l-22.717-42.081h-45.434l68.151,126.244,68.151-126.244h-45.434Z" transform="translate(2079.414 191.232)" fill="#e1faed"/>
          </g>
          <g id="Group_346" data-name="Group 346" transform="translate(1363.016)">
            <path id="Path_229" data-name="Path 229" d="M-1641.9-149.15l-22.717-42.081h-45.434L-1641.9-64.988l68.151-126.244h-45.434Z" transform="translate(1846.357 191.232)" fill="#e1faed"/>
            <path id="Path_230" data-name="Path 230" d="M-1703.464-42.525l-22.717-42.081h-45.434l68.151,126.244,68.151-126.244h-45.434Z" transform="translate(1839.766 210.851)" fill="#e1faed"/>
            <path id="Path_231" data-name="Path 231" d="M-1580.344-42.525l-22.717-42.081H-1648.5l68.151,126.244,68.151-126.244h-45.434Z" transform="translate(1852.948 210.851)" fill="#e1faed"/>
            <path id="Path_232" data-name="Path 232" d="M-1765.024-149.15l-22.717-42.081h-45.434l68.151,126.244,68.151-126.244h-45.434Z" transform="translate(1833.175 191.232)" fill="#e1faed"/>
          </g>
          <g id="Group_347" data-name="Group 347" transform="translate(1635.62)">
            <path id="Path_233" data-name="Path 233" d="M-1395.665-149.15l-22.717-42.081h-45.434l68.151,126.244,68.151-126.244h-45.434Z" transform="translate(1600.117 191.232)" fill="#e1faed"/>
            <path id="Path_234" data-name="Path 234" d="M-1457.225-42.525l-22.717-42.081h-45.434l68.151,126.244,68.151-126.244h-45.434Z" transform="translate(1593.526 210.851)" fill="#e1faed"/>
            <path id="Path_235" data-name="Path 235" d="M-1334.1-42.525l-22.717-42.081h-45.434L-1334.1,41.637l68.151-126.244h-45.434Z" transform="translate(1606.708 210.851)" fill="#e1faed"/>
            <path id="Path_236" data-name="Path 236" d="M-1518.785-149.15l-22.717-42.081h-45.434l68.151,126.244,68.151-126.244h-45.434Z" transform="translate(1586.936 191.232)" fill="#e1faed"/>
          </g>
          <g id="Group_348" data-name="Group 348" transform="translate(1908.223)">
            <path id="Path_237" data-name="Path 237" d="M-1149.425-149.15l-22.717-42.081h-45.434l68.151,126.244,68.151-126.244h-45.434Z" transform="translate(1353.878 191.232)" fill="#e1faed"/>
            <path id="Path_238" data-name="Path 238" d="M-1210.985-42.525-1233.7-84.607h-45.434l68.151,126.244,68.151-126.244h-45.434Z" transform="translate(1347.287 210.851)" fill="#e1faed"/>
            <path id="Path_239" data-name="Path 239" d="M-1087.865-42.525l-22.717-42.081h-45.434l68.151,126.244,68.151-126.244h-45.434Z" transform="translate(1360.469 210.851)" fill="#e1faed"/>
            <path id="Path_240" data-name="Path 240" d="M-1272.545-149.15l-22.717-42.081H-1340.7l68.151,126.244,68.151-126.244h-45.434Z" transform="translate(1340.696 191.232)" fill="#e1faed"/>
          </g>
        </g>
        <path id="Path_241" data-name="Path 241" d="M-1888.144-84.607l-68.151,126.244h45.434l22.717,42.081,22.717-42.081h45.434Z" transform="translate(3127.31 35.383)" fill="#c8f7e1"/>
        <path id="Path_242" data-name="Path 242" d="M-1395.665,128.643l-68.151,126.244h45.434l22.717,42.081,22.717-42.081h45.434Z" transform="translate(3180.037 74.62)" fill="#c8f7e1"/>
        <path id="Path_243" data-name="Path 243" d="M-1334.1,22.018l-68.151,126.244h45.434l22.717,42.081,22.717-42.081h45.434Z" transform="translate(3186.628 55.002)" fill="#c8f7e1"/>
        <path id="Path_244" data-name="Path 244" d="M-2941.253,22.018h136.3l68.151,126.244,68.151-126.244h136.3L-2736.8,400.75Z" transform="translate(3021.855 55.002)" fill="#c8f7e1"/>
        <path id="Path_245" data-name="Path 245" d="M-1340.7-191.232h136.3l68.151,126.244,68.151-126.244h136.3L-1136.243,187.5Z" transform="translate(3193.219 15.764)" fill="#c8f7e1"/>
        <path id="Path_246" data-name="Path 246" d="M-1116.47,614h-136.3l-68.151-126.244L-1389.074,614h-136.3l204.452-378.731Z" transform="translate(3173.446 94.239)" fill="#c8f7e1"/>
        <path id="Path_247" data-name="Path 247" d="M-2655.468,720.624h-136.3l-68.15-126.244-68.151,126.244h-136.3l204.453-378.731Z" transform="translate(3008.673 113.858)" fill="#c8f7e1"/>
        <path id="Path_248" data-name="Path 248" d="M-1835.179,128.643h-668.563l-68.151,126.244,68.151,126.244,537.747-1.091,143.76,1.091-68.151-126.244Z" transform="translate(3061.401 74.62)" fill="#c8f7e1"/>
      </g>
    </g>
  </g>
</svg>
